<svg width="833" height="136" viewBox="0 0 833 136" fill="none" xmlns="http://www.w3.org/2000/svg">
<path d="M61.1138 95.048C62.5538 96.584 63.2738 98.264 63.2738 100.088C63.2738 102.008 62.5058 103.64 60.9698 104.984C59.5298 106.232 57.9938 106.856 56.3618 106.856C54.2498 106.856 52.5698 106.088 51.3218 104.552L22.9538 74.456L14.3138 82.232V100.088C14.3138 102.008 13.6418 103.64 12.2978 104.984C11.0498 106.328 9.46581 107 7.54581 107C5.52981 107 3.84981 106.328 2.50581 104.984C1.25781 103.64 0.633813 102.008 0.633813 100.088V7.352C0.633813 5.432 1.25781 3.8 2.50581 2.456C3.84981 1.112 5.52981 0.439999 7.54581 0.439999C9.46581 0.439999 11.0498 1.112 12.2978 2.456C13.6418 3.8 14.3138 5.432 14.3138 7.352V65.816L49.5938 33.416C51.2258 31.976 52.9058 31.256 54.6338 31.256C56.2658 31.256 57.7538 31.976 59.0978 33.416C60.4418 34.76 61.1138 36.2 61.1138 37.736C61.1138 39.656 60.2018 41.384 58.3778 42.92L33.4658 65.096L61.1138 95.048ZM142.362 66.392C142.266 68.12 141.546 69.608 140.202 70.856C138.858 72.008 137.274 72.584 135.45 72.584H84.7624C85.4344 79.592 88.0744 85.208 92.6824 89.432C97.3864 93.656 103.098 95.768 109.818 95.768C114.426 95.768 118.17 95.096 121.05 93.752C123.93 92.408 126.474 90.68 128.682 88.568C130.122 87.704 131.514 87.272 132.858 87.272C134.49 87.272 135.834 87.848 136.89 89C138.042 90.152 138.618 91.496 138.618 93.032C138.618 95.048 137.658 96.872 135.738 98.504C132.954 101.288 129.258 103.64 124.65 105.56C120.042 107.48 115.338 108.44 110.538 108.44C102.762 108.44 95.8984 106.808 89.9464 103.544C84.0904 100.28 79.5304 95.72 76.2664 89.864C73.0984 84.008 71.5144 77.384 71.5144 69.992C71.5144 61.928 73.1464 54.872 76.4104 48.824C79.7704 42.68 84.1384 37.976 89.5144 34.712C94.9864 31.448 100.842 29.816 107.082 29.816C113.226 29.816 118.986 31.4 124.362 34.568C129.738 37.736 134.058 42.104 137.322 47.672C140.586 53.24 142.266 59.48 142.362 66.392ZM107.082 42.488C101.706 42.488 97.0504 44.024 93.1144 47.096C89.1784 50.072 86.5864 54.728 85.3384 61.064H127.818V59.912C127.338 54.824 125.034 50.648 120.906 47.384C116.874 44.12 112.266 42.488 107.082 42.488ZM224.487 66.392C224.391 68.12 223.671 69.608 222.327 70.856C220.983 72.008 219.399 72.584 217.575 72.584H166.887C167.559 79.592 170.199 85.208 174.807 89.432C179.511 93.656 185.223 95.768 191.943 95.768C196.551 95.768 200.295 95.096 203.175 93.752C206.055 92.408 208.599 90.68 210.807 88.568C212.247 87.704 213.639 87.272 214.983 87.272C216.615 87.272 217.959 87.848 219.015 89C220.167 90.152 220.743 91.496 220.743 93.032C220.743 95.048 219.783 96.872 217.863 98.504C215.079 101.288 211.383 103.64 206.775 105.56C202.167 107.48 197.463 108.44 192.663 108.44C184.887 108.44 178.023 106.808 172.071 103.544C166.215 100.28 161.655 95.72 158.391 89.864C155.223 84.008 153.639 77.384 153.639 69.992C153.639 61.928 155.271 54.872 158.535 48.824C161.895 42.68 166.263 37.976 171.639 34.712C177.111 31.448 182.967 29.816 189.207 29.816C195.351 29.816 201.111 31.4 206.487 34.568C211.863 37.736 216.183 42.104 219.447 47.672C222.711 53.24 224.391 59.48 224.487 66.392ZM189.207 42.488C183.831 42.488 179.175 44.024 175.239 47.096C171.303 50.072 168.711 54.728 167.463 61.064H209.943V59.912C209.463 54.824 207.159 50.648 203.031 47.384C198.999 44.12 194.391 42.488 189.207 42.488ZM278.244 30.248C284.772 30.248 290.676 31.928 295.956 35.288C301.236 38.552 305.364 43.16 308.34 49.112C311.412 55.064 312.948 61.784 312.948 69.272C312.948 76.76 311.412 83.48 308.34 89.432C305.364 95.288 301.236 99.896 295.956 103.256C290.676 106.616 284.868 108.296 278.532 108.296C273.54 108.296 268.884 107.192 264.564 104.984C260.244 102.776 256.74 100.088 254.052 96.92V128.888C254.052 130.808 253.38 132.44 252.036 133.784C250.788 135.128 249.156 135.8 247.14 135.8C245.22 135.8 243.588 135.128 242.244 133.784C240.996 132.536 240.372 130.904 240.372 128.888V38.312C240.372 36.296 240.996 34.616 242.244 33.272C243.492 31.928 245.124 31.256 247.14 31.256C249.156 31.256 250.788 31.928 252.036 33.272C253.38 34.616 254.052 36.296 254.052 38.312V42.488C256.356 39.128 259.716 36.248 264.132 33.848C268.548 31.448 273.252 30.248 278.244 30.248ZM276.66 95.624C281.076 95.624 285.06 94.472 288.612 92.168C292.164 89.864 294.9 86.744 296.82 82.808C298.836 78.776 299.844 74.264 299.844 69.272C299.844 64.28 298.836 59.816 296.82 55.88C294.9 51.848 292.164 48.68 288.612 46.376C285.06 44.072 281.076 42.92 276.66 42.92C272.148 42.92 268.116 44.072 264.564 46.376C261.012 48.584 258.228 51.704 256.212 55.736C254.292 59.768 253.332 64.28 253.332 69.272C253.332 74.264 254.292 78.776 256.212 82.808C258.228 86.84 261.012 90.008 264.564 92.312C268.116 94.52 272.148 95.624 276.66 95.624ZM642.797 30.824C644.621 30.824 646.157 31.496 647.405 32.84C648.749 34.088 649.421 35.72 649.421 37.736C649.421 38.408 649.229 39.32 648.845 40.472L626.813 102.68C626.237 104.216 625.277 105.368 623.933 106.136C622.589 106.904 621.149 107.192 619.613 107C617.021 106.808 615.053 105.368 613.709 102.68L598.733 63.512L584.909 102.68C584.333 104.024 583.517 105.08 582.461 105.848C581.405 106.52 580.253 106.904 579.005 107C577.565 107.192 576.125 106.904 574.685 106.136C573.341 105.272 572.429 104.12 571.949 102.68L549.629 40.472C549.341 39.608 549.197 38.696 549.197 37.736C549.197 35.816 549.821 34.184 551.069 32.84C552.317 31.496 553.949 30.824 555.965 30.824C559.229 30.824 561.341 32.264 562.301 35.144L579.437 83.672L593.117 47.816C594.269 44.936 596.381 43.496 599.453 43.496C602.333 43.496 604.301 44.936 605.357 47.816L619.325 83.096L636.173 35.144C637.229 32.264 639.437 30.824 642.797 30.824ZM730.456 66.392C730.36 68.12 729.64 69.608 728.296 70.856C726.952 72.008 725.368 72.584 723.544 72.584H672.856C673.528 79.592 676.168 85.208 680.776 89.432C685.48 93.656 691.192 95.768 697.912 95.768C702.52 95.768 706.264 95.096 709.144 93.752C712.024 92.408 714.568 90.68 716.776 88.568C718.216 87.704 719.608 87.272 720.952 87.272C722.584 87.272 723.928 87.848 724.984 89C726.136 90.152 726.712 91.496 726.712 93.032C726.712 95.048 725.752 96.872 723.832 98.504C721.048 101.288 717.352 103.64 712.744 105.56C708.136 107.48 703.432 108.44 698.632 108.44C690.856 108.44 683.992 106.808 678.04 103.544C672.184 100.28 667.624 95.72 664.36 89.864C661.192 84.008 659.608 77.384 659.608 69.992C659.608 61.928 661.24 54.872 664.504 48.824C667.864 42.68 672.232 37.976 677.608 34.712C683.08 31.448 688.936 29.816 695.176 29.816C701.32 29.816 707.08 31.4 712.456 34.568C717.832 37.736 722.152 42.104 725.416 47.672C728.68 53.24 730.36 59.48 730.456 66.392ZM695.176 42.488C689.8 42.488 685.144 44.024 681.208 47.096C677.272 50.072 674.68 54.728 673.432 61.064H715.912V59.912C715.432 54.824 713.128 50.648 709 47.384C704.968 44.12 700.36 42.488 695.176 42.488ZM761.173 100.088C761.173 102.008 760.501 103.64 759.157 104.984C757.813 106.328 756.181 107 754.261 107C752.341 107 750.709 106.328 749.365 104.984C748.117 103.64 747.493 102.008 747.493 100.088V7.352C747.493 5.432 748.165 3.8 749.509 2.456C750.853 1.112 752.485 0.439999 754.405 0.439999C756.325 0.439999 757.909 1.112 759.157 2.456C760.501 3.8 761.173 5.432 761.173 7.352V100.088ZM797.595 100.088C797.595 102.008 796.923 103.64 795.579 104.984C794.235 106.328 792.603 107 790.683 107C788.763 107 787.131 106.328 785.787 104.984C784.539 103.64 783.915 102.008 783.915 100.088V7.352C783.915 5.432 784.587 3.8 785.931 2.456C787.275 1.112 788.907 0.439999 790.827 0.439999C792.747 0.439999 794.331 1.112 795.579 2.456C796.923 3.8 797.595 5.432 797.595 7.352V100.088ZM824.081 106.856C821.777 106.856 820.001 106.232 818.753 104.984C817.601 103.736 817.025 101.912 817.025 99.512V96.776C817.025 94.472 817.601 92.696 818.753 91.448C820.001 90.2 821.777 89.576 824.081 89.576H825.521C827.921 89.576 829.697 90.2 830.849 91.448C832.097 92.696 832.721 94.472 832.721 96.776V99.512C832.721 104.408 830.321 106.856 825.521 106.856H824.081Z" fill="black"/>
<path d="M395.066 66.392C394.97 68.12 394.25 69.608 392.906 70.856C391.562 72.008 389.978 72.584 388.154 72.584H337.466C338.138 79.592 340.778 85.208 345.386 89.432C350.09 93.656 355.802 95.768 362.522 95.768C367.13 95.768 370.874 95.096 373.754 93.752C376.634 92.408 379.178 90.68 381.386 88.568C382.826 87.704 384.218 87.272 385.562 87.272C387.194 87.272 388.538 87.848 389.594 89C390.746 90.152 391.322 91.496 391.322 93.032C391.322 95.048 390.362 96.872 388.442 98.504C385.658 101.288 381.962 103.64 377.354 105.56C372.746 107.48 368.042 108.44 363.242 108.44C355.466 108.44 348.602 106.808 342.65 103.544C336.794 100.28 332.234 95.72 328.97 89.864C325.802 84.008 324.218 77.384 324.218 69.992C324.218 61.928 325.85 54.872 329.114 48.824C332.474 42.68 336.842 37.976 342.218 34.712C347.69 31.448 353.546 29.816 359.786 29.816C365.93 29.816 371.69 31.4 377.066 34.568C382.442 37.736 386.762 42.104 390.026 47.672C393.29 53.24 394.97 59.48 395.066 66.392ZM359.786 42.488C354.41 42.488 349.754 44.024 345.818 47.096C341.882 50.072 339.29 54.728 338.042 61.064H380.522V59.912C380.042 54.824 377.738 50.648 373.61 47.384C369.578 44.12 364.97 42.488 359.786 42.488ZM472.713 30.536C474.729 30.536 476.361 31.208 477.609 32.552C478.953 33.8 479.625 35.48 479.625 37.592V100.088C479.625 102.008 478.953 103.64 477.609 104.984C476.361 106.328 474.729 107 472.713 107C470.697 107 469.065 106.376 467.817 105.128C466.569 103.784 465.945 102.104 465.945 100.088V96.344C463.449 99.704 460.041 102.584 455.721 104.984C451.401 107.288 446.745 108.44 441.753 108.44C435.225 108.44 429.273 106.76 423.897 103.4C418.617 100.04 414.441 95.384 411.369 89.432C408.393 83.384 406.905 76.616 406.905 69.128C406.905 61.64 408.393 54.92 411.369 48.968C414.441 42.92 418.617 38.216 423.897 34.856C429.177 31.496 434.985 29.816 441.321 29.816C446.409 29.816 451.113 30.872 455.433 32.984C459.849 35.096 463.353 37.784 465.945 41.048V37.592C465.945 35.576 466.569 33.896 467.817 32.552C469.065 31.208 470.697 30.536 472.713 30.536ZM443.337 95.768C447.849 95.768 451.833 94.616 455.289 92.312C458.841 90.008 461.577 86.84 463.497 82.808C465.513 78.776 466.521 74.216 466.521 69.128C466.521 64.136 465.513 59.624 463.497 55.592C461.577 51.56 458.841 48.392 455.289 46.088C451.833 43.688 447.849 42.488 443.337 42.488C438.825 42.488 434.793 43.64 431.241 45.944C427.785 48.248 425.049 51.416 423.033 55.448C421.113 59.48 420.153 64.04 420.153 69.128C420.153 74.216 421.113 78.776 423.033 82.808C425.049 86.84 427.785 90.008 431.241 92.312C434.793 94.616 438.825 95.768 443.337 95.768ZM520.414 44.936V87.848C520.414 92.648 522.574 95.048 526.894 95.048C527.566 95.048 528.478 94.904 529.63 94.616C530.782 94.232 531.694 94.04 532.366 94.04C533.614 94.04 534.67 94.568 535.534 95.624C536.398 96.68 536.83 98.024 536.83 99.656C536.83 101.672 535.678 103.4 533.374 104.84C531.07 106.28 528.478 107 525.598 107C522.43 107 519.502 106.664 516.814 105.992C514.222 105.32 511.87 103.64 509.758 100.952C507.742 98.168 506.734 93.992 506.734 88.424V44.936H498.382C496.558 44.936 495.022 44.36 493.774 43.208C492.622 41.96 492.046 40.424 492.046 38.6C492.046 36.776 492.622 35.288 493.774 34.136C495.022 32.984 496.558 32.408 498.382 32.408H506.734V20.312C506.734 18.392 507.358 16.76 508.606 15.416C509.95 14.072 511.63 13.4 513.646 13.4C515.566 13.4 517.15 14.072 518.398 15.416C519.742 16.76 520.414 18.392 520.414 20.312V32.408H532.366C534.19 32.408 535.678 33.032 536.83 34.28C538.078 35.432 538.702 36.92 538.702 38.744C538.702 40.568 538.078 42.056 536.83 43.208C535.678 44.36 534.19 44.936 532.366 44.936H520.414Z" fill="#FB9300"/>
</svg>
